# xmcd
#
# Track frame offsets: 
#        150
#        4199
#        22235
#        38011
#        46764
#        66543
#        79770
#        84532
#        106758
#        124139
#        131866
#        157685
#        176414
#        200096
#        217847
#        224926
#        242217
#        258969
#
# Disc length: 3742 seconds
#
# Revision: 0
# Processed by: cddbd v1.5.2PL0 Copyright (c) Steve Scherf et al.
# Submitted via: ExactAudioCopyFreeDBPlugin 1.0
#
DISCID=000e9c12
DTITLE=Raheem DeVaughn - A Place Called Love Land (Deluxe Edition)
DYEAR=2013
DGENRE=R&B
TTITLE0=Interlude - Album Intro
TTITLE1=Love Connection
TTITLE2=Wrong Forever
TTITLE3=Interlude - Don't Go
TTITLE4=Complicated
TTITLE5=In The Meantime
TTITLE6=Interlude:  Rebirth
TTITLE7=Ridiculous
TTITLE8=Pink Crush Velvet
TTITLE9=Interlude - Dear Love Queen (feat. Jazz)
TTITLE10=Greatest Love
TTITLE11=Cry Baby
TTITLE12=Make A Baby
TTITLE13=Make 'Em Like You
TTITLE14=Interlude - Happy
TTITLE15=Maker Of Love (feat. Boney James)
TTITLE16=True Love
TTITLE17=You Save Me From Myself
EXTD=
EXTT0=
EXTT1=
EXTT2=
EXTT3=
EXTT4=
EXTT5=
EXTT6=
EXTT7=
EXTT8=
EXTT9=
EXTT10=
EXTT11=
EXTT12=
EXTT13=
EXTT14=
EXTT15=
EXTT16=
EXTT17=
PLAYORDER=
